<svg id="Layer_1" data-name="Layer 1" xmlns="http://www.w3.org/2000/svg" xmlns:xlink="http://www.w3.org/1999/xlink" viewBox="0 0 346.79 130.86"><defs><style>.cls-1{fill:#121e2c;}.cls-2{fill:url(#linear-gradient);}.cls-3{fill:#01b1af;}</style><linearGradient id="linear-gradient" x1="1.58" y1="67.57" x2="348.37" y2="67.57" gradientUnits="userSpaceOnUse"><stop offset="0" stop-color="#01b1af"/><stop offset="0.17" stop-color="#01b1af"/><stop offset="0.3" stop-color="#2583a5"/><stop offset="0.5" stop-color="#5e3b94"/><stop offset="1" stop-color="#5e3b94"/></linearGradient></defs><path class="cls-1" d="M137.88,47.51h-5a1,1,0,0,1-1-1V32.65a1,1,0,0,1,.31-.71,1,1,0,0,1,.7-.3h5a8.26,8.26,0,0,1,3.17.63,8.1,8.1,0,0,1,2.6,1.71,7.86,7.86,0,0,1,1.76,2.52,7.69,7.69,0,0,1,.65,3.1,7.21,7.21,0,0,1-.67,3.06,7.77,7.77,0,0,1-1.77,2.53,8.43,8.43,0,0,1-5.78,2.32m-4-2h4a6.67,6.67,0,0,0,2.36-.48,6.14,6.14,0,0,0,2-1.28,6.26,6.26,0,0,0,1.34-1.89,5.47,5.47,0,0,0,.48-2.24,5.67,5.67,0,0,0-.48-2.29,5.79,5.79,0,0,0-1.32-1.87,6.11,6.11,0,0,0-4.36-1.78h-4Z" transform="translate(-1.58 -2.14)"/><path class="cls-1" d="M150.34,47.51a1,1,0,0,1-1-1V32.65a1,1,0,0,1,1-1,1,1,0,0,1,1,1V46.5a1,1,0,0,1-1,1" transform="translate(-1.58 -2.14)"/><path class="cls-1" d="M162.88,47.87a8,8,0,0,1-3.23-.66A8.14,8.14,0,0,1,157,45.43a8.43,8.43,0,0,1-1.77-2.61,7.84,7.84,0,0,1-.65-3.18,8,8,0,0,1,.65-3.19,8.36,8.36,0,0,1,7.69-5,8.13,8.13,0,0,1,4.71,1.49,1,1,0,0,1,.24,1.42,1,1,0,0,1-1.42.24,5.92,5.92,0,0,0-3.53-1.13,6.19,6.19,0,0,0-2.46.5,6,6,0,0,0-2,1.33,6.43,6.43,0,0,0-1.38,2,6.15,6.15,0,0,0-.48,2.39,6.06,6.06,0,0,0,.48,2.38,6.4,6.4,0,0,0,5.8,3.83,6.06,6.06,0,0,0,4.3-1.75V39.9a1,1,0,1,1,2,0v4.62a1,1,0,0,1-.26.67,8.22,8.22,0,0,1-2.69,2,8,8,0,0,1-3.37.73" transform="translate(-1.58 -2.14)"/><path class="cls-1" d="M173.44,47.51a1,1,0,0,1-1-1V32.65a1,1,0,0,1,1-1,1,1,0,0,1,1,1V46.5a1,1,0,0,1-1,1" transform="translate(-1.58 -2.14)"/><path class="cls-1" d="M190.58,32.65a1,1,0,0,1-1,1h-4.42V46.5a1,1,0,1,1-2,0V33.66h-4.44a1,1,0,1,1,0-2h10.88a1,1,0,0,1,1,1" transform="translate(-1.58 -2.14)"/><path class="cls-1" d="M191.9,47.51a1,1,0,0,1-.91-1.45l6.72-13.85a1,1,0,0,1,.91-.57,1,1,0,0,1,.91.57L206.29,46a1,1,0,0,1-1.81.89l-1.58-3.25a7.23,7.23,0,0,0-3.35-.12,12.17,12.17,0,0,0-3.45,1.23,18,18,0,0,0-3.52,2.45,1,1,0,0,1-.68.28M198.62,35l-4.06,8.38.57-.3a13.76,13.76,0,0,1,4-1.46,9.82,9.82,0,0,1,2.63-.14Z" transform="translate(-1.58 -2.14)"/><path class="cls-1" d="M218.53,47.51h-8.8a1,1,0,0,1-1-1V32.65a1,1,0,1,1,2,0V45.49h7.79a1,1,0,0,1,0,2" transform="translate(-1.58 -2.14)"/><path class="cls-1" d="M151,63.43a7,7,0,0,0-5.09-2A7.11,7.11,0,1,0,151,73.64l5.65,5.57a15.14,15.14,0,1,1-10.74-25.8,15,15,0,0,1,10.66,4.4Z" transform="translate(-1.58 -2.14)"/><polygon class="cls-1" points="169.1 51.27 169.1 62.05 178.71 62.05 178.71 51.27 186.66 51.27 186.66 81.56 178.71 81.56 178.71 70.01 169.1 70.01 169.1 81.56 161.14 81.56 161.14 51.27 169.1 51.27"/><path class="cls-1" d="M192.32,83.7l14.13-30.29h3.6L224.3,83.7h-8l-1.86-4H202.1l-1.82,4ZM205.2,73h6.18l-3.07-6.67Z" transform="translate(-1.58 -2.14)"/><path class="cls-1" d="M226.33,83.7l14.13-30.29h3.59L258.31,83.7h-7.95l-1.86-4H236.1l-1.82,4ZM239.21,73h6.18l-3.07-6.67Z" transform="translate(-1.58 -2.14)"/><path class="cls-1" d="M262.35,83.7V53.41h13.37a9.14,9.14,0,0,1,9,9,8.89,8.89,0,0,1-1.94,5.45,8.84,8.84,0,0,1-5.45,15.83Zm11.79-18.46a2.63,2.63,0,1,0,0-5.25h-3.83v5.25Zm1.49,11.92a2.63,2.63,0,0,0,2.63-2.63,2.66,2.66,0,0,0-2.63-2.62h-5.32v5.25Z" transform="translate(-1.58 -2.14)"/><rect class="cls-1" x="289.32" y="51.27" width="7.96" height="30.29"/><path class="cls-1" d="M135.84,117.18a4.24,4.24,0,0,1-2.18-.53,3.13,3.13,0,0,1-1.2-1.22,4.44,4.44,0,0,1-.48-2.11v-4.87a.59.59,0,0,1,1.17,0v4.87a3.36,3.36,0,0,0,.33,1.55,2,2,0,0,0,.76.78,3.24,3.24,0,0,0,1.6.36,3.17,3.17,0,0,0,1.59-.36,2,2,0,0,0,.75-.77,3.33,3.33,0,0,0,.34-1.56v-4.87a.6.6,0,0,1,.59-.58.59.59,0,0,1,.58.58v4.87a4.42,4.42,0,0,1-.48,2.11,3.49,3.49,0,0,1-3.37,1.75" transform="translate(-1.58 -2.14)"/><path class="cls-1" d="M151.13,117.07a.62.62,0,0,1-.45-.21l-5.63-6.77v6.39a.59.59,0,0,1-1.17,0v-8a.57.57,0,0,1,.38-.55.6.6,0,0,1,.65.17l5.64,6.77v-6.38a.57.57,0,0,1,.58-.58.58.58,0,0,1,.59.58v8a.63.63,0,0,1-.39.55l-.2,0" transform="translate(-1.58 -2.14)"/><path class="cls-1" d="M161.58,117H156.5a.59.59,0,0,1-.59-.59v-8a.59.59,0,0,1,.59-.58.58.58,0,0,1,.58.58v7.42h4.5a.59.59,0,0,1,0,1.17" transform="translate(-1.58 -2.14)"/><path class="cls-1" d="M171.09,117.23a4.67,4.67,0,0,1-1.87-.38,4.89,4.89,0,0,1-2.55-2.54,4.82,4.82,0,0,1-.37-1.83,4.63,4.63,0,0,1,1.42-3.35,4.75,4.75,0,0,1,3.4-1.4,4.75,4.75,0,0,1,4.71,4.75,4.8,4.8,0,0,1-1.37,3.34,4.7,4.7,0,0,1-3.37,1.41m0-8.33a3.67,3.67,0,0,0-1.42.28,3.43,3.43,0,0,0-1.17.78,3.69,3.69,0,0,0-1.07,2.52,3.56,3.56,0,0,0,1.06,2.52,3.65,3.65,0,0,0,2.57,1.07,3.6,3.6,0,0,0,2.54-1.06,3.72,3.72,0,0,0,.76-1.15,3.81,3.81,0,0,0,.27-1.38,3.54,3.54,0,0,0-1-2.52,3.45,3.45,0,0,0-2.52-1.06" transform="translate(-1.58 -2.14)"/><path class="cls-1" d="M184.75,117.19a4.69,4.69,0,0,1-1.88-.39,4.8,4.8,0,0,1-1.51-1,4.6,4.6,0,0,1-1-1.52,4.44,4.44,0,0,1-.37-1.83,4.8,4.8,0,0,1,.37-1.84,4.69,4.69,0,0,1,1-1.51,4.81,4.81,0,0,1,1.54-1,4.76,4.76,0,0,1,1.86-.38,4.62,4.62,0,0,1,2.85,1,.58.58,0,1,1-.7.93,3.44,3.44,0,0,0-2.15-.72,3.6,3.6,0,0,0-2.58,1.06,3.76,3.76,0,0,0-.79,1.14,3.62,3.62,0,0,0-.28,1.38,3.57,3.57,0,0,0,.28,1.37,3.52,3.52,0,0,0,.79,1.15,3.57,3.57,0,0,0,2.56,1.07,3.54,3.54,0,0,0,2.29-.83.58.58,0,0,1,.74.89,4.9,4.9,0,0,1-3,1.11" transform="translate(-1.58 -2.14)"/><path class="cls-1" d="M192.77,117a.58.58,0,0,1-.59-.58v-8a.59.59,0,0,1,.59-.59.58.58,0,0,1,.58.59v8a.57.57,0,0,1-.58.58m6.14,0a1.34,1.34,0,0,1-.52-.11,2.09,2.09,0,0,1-1.1-1,9.7,9.7,0,0,0-3.26-3,.55.55,0,0,1-.29-.44.52.52,0,0,1,.17-.49l4.14-4a.59.59,0,0,1,.83,0,.57.57,0,0,1,0,.82l-3.59,3.44a9.76,9.76,0,0,1,3.05,3c.29.49.57.51.6.51a.61.61,0,0,1,.66.48.6.6,0,0,1-.48.67s-.09,0-.18,0" transform="translate(-1.58 -2.14)"/><path class="cls-1" d="M218.68,108.78l-3,4.55v3.12a.59.59,0,0,1-.58.59.6.6,0,0,1-.59-.59v-3.12l-3-4.55a.59.59,0,0,1,.16-.81.58.58,0,0,1,.81.16l2.65,4,2.65-4a.58.58,0,0,1,1,.65" transform="translate(-1.58 -2.14)"/><path class="cls-1" d="M227.7,117.23a4.59,4.59,0,0,1-1.86-.38,4.69,4.69,0,0,1-1.53-1,4.85,4.85,0,0,1-1-1.51,4.64,4.64,0,0,1,0-3.68,4.87,4.87,0,0,1,1-1.5,5.09,5.09,0,0,1,1.53-1,5,5,0,0,1,1.88-.37,4.61,4.61,0,0,1,3.34,1.41,4.63,4.63,0,0,1,1.35,3.34,4.73,4.73,0,0,1-4.73,4.75m0-8.33a3.72,3.72,0,0,0-1.43.28,3.49,3.49,0,0,0-1.16.78,3.18,3.18,0,0,0-.78,1.14,3.26,3.26,0,0,0-.29,1.38,3.56,3.56,0,0,0,.27,1.37,3.71,3.71,0,0,0,3.35,2.22,3.58,3.58,0,0,0,2.54-1.06,3.72,3.72,0,0,0,.76-1.15,3.61,3.61,0,0,0,.27-1.38,3.57,3.57,0,0,0-1-2.52,3.49,3.49,0,0,0-2.52-1.06" transform="translate(-1.58 -2.14)"/><path class="cls-1" d="M240.43,117.18a4.24,4.24,0,0,1-2.18-.53,3.13,3.13,0,0,1-1.2-1.22,4.44,4.44,0,0,1-.48-2.11v-4.87a.59.59,0,0,1,1.17,0v4.87a3.27,3.27,0,0,0,.34,1.55,2,2,0,0,0,.75.78,3.74,3.74,0,0,0,3.2,0,2,2,0,0,0,.74-.77,3.33,3.33,0,0,0,.34-1.56v-4.87a.6.6,0,0,1,.59-.58.59.59,0,0,1,.58.58v4.87a4.42,4.42,0,0,1-.48,2.11,3.49,3.49,0,0,1-3.37,1.75" transform="translate(-1.58 -2.14)"/><path class="cls-1" d="M249.05,117a.58.58,0,0,1-.58-.59v-8a.57.57,0,0,1,.58-.58h3.47a2.73,2.73,0,0,1,.69.1,2.68,2.68,0,0,1,1.3.72,2.47,2.47,0,0,1,.61.93,3.61,3.61,0,0,1,.23,1.35,2.65,2.65,0,0,1-1.34,2.45,2.94,2.94,0,0,1-.7.29,6.24,6.24,0,0,1,1.32,1.62c.3.51.63.51.67.51a.6.6,0,0,1,.66.5.59.59,0,0,1-.49.66,1.6,1.6,0,0,1-.71-.08,2.17,2.17,0,0,1-1.14-1,4.56,4.56,0,0,0-1.49-1.61,2.39,2.39,0,0,0-.73-.35.57.57,0,0,1-.47-.63.58.58,0,0,1,.59-.53,4,4,0,0,0,1.92-.38,1.5,1.5,0,0,0,.75-1.44,2.33,2.33,0,0,0-.26-1.15,1.47,1.47,0,0,0-.54-.54,2,2,0,0,0-.87-.24h-2.88v7.41a.59.59,0,0,1-.59.59" transform="translate(-1.58 -2.14)"/><path class="cls-1" d="M271.13,117.18c-2.53,0-3.24-1.19-3.32-1.34a.59.59,0,0,1,.23-.79.6.6,0,0,1,.79.23,1.29,1.29,0,0,0,.44.34,4,4,0,0,0,1.86.39,2.5,2.5,0,0,0,1.68-.47,1,1,0,0,0,.32-.72,1.31,1.31,0,0,0-.41-1,3.63,3.63,0,0,0-1.88-.81,4.52,4.52,0,0,1-1.64-.67,2.82,2.82,0,0,1-.88-.94,2.51,2.51,0,0,1-.33-1.25,2.3,2.3,0,0,1,.79-1.68,2.85,2.85,0,0,1,.88-.52,3.27,3.27,0,0,1,1.13-.19c2.28,0,2.94,1.07,3,1.2a.6.6,0,0,1-.22.8.59.59,0,0,1-.78-.21,1.59,1.59,0,0,0-.38-.3,3.46,3.46,0,0,0-1.63-.32,1.76,1.76,0,0,0-1.24.42,1.12,1.12,0,0,0-.4.82v0a1.33,1.33,0,0,0,.21.68,1.71,1.71,0,0,0,.54.53,3.4,3.4,0,0,0,1.17.45,4.71,4.71,0,0,1,2.46,1.12,2.47,2.47,0,0,1,.76,1.86,2.14,2.14,0,0,1-.69,1.59,3.51,3.51,0,0,1-2.47.77" transform="translate(-1.58 -2.14)"/><path class="cls-1" d="M282.35,117.18a4.3,4.3,0,0,1-2.19-.53,3.1,3.1,0,0,1-1.19-1.22,4.44,4.44,0,0,1-.48-2.11v-4.87a.59.59,0,0,1,.58-.58.58.58,0,0,1,.58.58v4.87a3.27,3.27,0,0,0,.34,1.55,2,2,0,0,0,.76.78,3.24,3.24,0,0,0,1.6.36,3.2,3.2,0,0,0,1.59-.36,2,2,0,0,0,.75-.77,3.33,3.33,0,0,0,.34-1.56v-4.87a.59.59,0,0,1,1.17,0v4.87a4.42,4.42,0,0,1-.48,2.11,3.52,3.52,0,0,1-3.37,1.75" transform="translate(-1.58 -2.14)"/><path class="cls-1" d="M295.18,117.19a4.69,4.69,0,0,1-1.88-.39,4.83,4.83,0,0,1-2.54-2.54,4.61,4.61,0,0,1-.37-1.83,4.8,4.8,0,0,1,.37-1.84,5,5,0,0,1,1-1.51,4.91,4.91,0,0,1,3.41-1.4,4.61,4.61,0,0,1,2.84,1,.58.58,0,1,1-.7.93,3.43,3.43,0,0,0-2.14-.72,3.68,3.68,0,0,0-1.43.28,3.76,3.76,0,0,0-1.16.78,3.56,3.56,0,0,0-.78,1.14,3.45,3.45,0,0,0-.29,1.38,3.4,3.4,0,0,0,.29,1.37,3.35,3.35,0,0,0,.78,1.15,3.57,3.57,0,0,0,2.56,1.07,3.54,3.54,0,0,0,2.29-.83.58.58,0,0,1,.74.89,4.57,4.57,0,0,1-1.38.8,4.69,4.69,0,0,1-1.65.31" transform="translate(-1.58 -2.14)"/><path class="cls-1" d="M307.41,117.19a4.69,4.69,0,0,1-1.88-.39,4.8,4.8,0,0,1-1.51-1,4.6,4.6,0,0,1-1-1.52,4.44,4.44,0,0,1-.37-1.83,4.8,4.8,0,0,1,.37-1.84,4.84,4.84,0,0,1,2.58-2.53,4.76,4.76,0,0,1,1.86-.38,4.62,4.62,0,0,1,2.85,1,.58.58,0,0,1-.7.93,3.44,3.44,0,0,0-2.15-.72,3.6,3.6,0,0,0-2.58,1.06,3.76,3.76,0,0,0-.79,1.14,3.62,3.62,0,0,0-.28,1.38,3.57,3.57,0,0,0,.28,1.37,3.52,3.52,0,0,0,.79,1.15,3.57,3.57,0,0,0,2.56,1.07,3.54,3.54,0,0,0,2.29-.83.58.58,0,0,1,.74.89,4.5,4.5,0,0,1-1.39.8,4.59,4.59,0,0,1-1.64.31" transform="translate(-1.58 -2.14)"/><path class="cls-1" d="M321.59,116.44a.58.58,0,0,1-.59.58h-5.57a.58.58,0,0,1-.59-.58v-8a.59.59,0,0,1,.59-.58h5.45a.59.59,0,1,1,0,1.17H316v2.8h4.32a.6.6,0,0,1,.58.59.57.57,0,0,1-.58.58H316v2.85h5a.58.58,0,0,1,.59.58" transform="translate(-1.58 -2.14)"/><path class="cls-1" d="M329.17,117.18c-2.53,0-3.24-1.19-3.32-1.34a.58.58,0,1,1,1-.56,1.56,1.56,0,0,0,.45.34,4,4,0,0,0,1.86.39,2.52,2.52,0,0,0,1.68-.47,1,1,0,0,0,.32-.72,1.31,1.31,0,0,0-.41-1,3.63,3.63,0,0,0-1.88-.81,4.65,4.65,0,0,1-1.65-.67,2.79,2.79,0,0,1-.87-.94,2.51,2.51,0,0,1-.33-1.25,2.33,2.33,0,0,1,.78-1.68,3,3,0,0,1,.89-.52,3.29,3.29,0,0,1,1.14-.19c2.27,0,2.93,1.07,3,1.2a.6.6,0,0,1-.22.8.59.59,0,0,1-.78-.21,1.38,1.38,0,0,0-.38-.3,3.44,3.44,0,0,0-1.62-.32,1.77,1.77,0,0,0-1.25.42,1.12,1.12,0,0,0-.4.82v0a1.33,1.33,0,0,0,.21.68,1.71,1.71,0,0,0,.54.53,3.4,3.4,0,0,0,1.17.45,4.74,4.74,0,0,1,2.46,1.12,2.47,2.47,0,0,1,.76,1.86,2.17,2.17,0,0,1-.68,1.59,3.58,3.58,0,0,1-2.48.77" transform="translate(-1.58 -2.14)"/><path class="cls-1" d="M339.92,117.18c-2.53,0-3.24-1.19-3.32-1.34a.58.58,0,1,1,1-.56,1.43,1.43,0,0,0,.44.34,4.11,4.11,0,0,0,1.87.39,2.52,2.52,0,0,0,1.68-.47.93.93,0,0,0,.31-.72,1.3,1.3,0,0,0-.4-1,3.67,3.67,0,0,0-1.88-.81,4.65,4.65,0,0,1-1.65-.67,2.79,2.79,0,0,1-.87-.94,2.45,2.45,0,0,1-.34-1.25,2.28,2.28,0,0,1,.8-1.68,2.74,2.74,0,0,1,.88-.52,3.23,3.23,0,0,1,1.13-.19c2.28,0,2.94,1.07,3,1.2a.6.6,0,0,1-.22.8.59.59,0,0,1-.78-.21,1.33,1.33,0,0,0-.39-.3,3.41,3.41,0,0,0-1.62-.32,1.81,1.81,0,0,0-1.25.42,1.14,1.14,0,0,0-.39.82v0a1.33,1.33,0,0,0,.21.68,1.78,1.78,0,0,0,.53.53,3.46,3.46,0,0,0,1.18.45,4.74,4.74,0,0,1,2.46,1.12,2.5,2.5,0,0,1,.76,1.86,2.14,2.14,0,0,1-.69,1.59,3.55,3.55,0,0,1-2.47.77" transform="translate(-1.58 -2.14)"/><path class="cls-2" d="M57.26,2.82C19.67,8.14-2.92,42.56,2.33,77.6,6.21,103.53,25.5,125,50.71,130.88c27.75,6.45,50.78-1.87,68.64-24,2.74-3.4,5.72-4.95,10-4.93,26,.07,51.92,0,77.87,0,29.58,0,104,0,133.6,0,3.17,0,5.82-.86,7.09-4s-.08-5.37-2.26-7.52c-6.74-6.64-10-13.35-16.71-20.05C324.65,66,320.42,64,314.39,64c-1.8,0-3.61,0-5.43,0,0,0-3.31-.32-5.83,4.24-1.45,2.64-1.67,7.61-1.67,7.61,5,.12,6.62.25,11.63.58,2.18.14,4.84.77,6.43,2.13,3.79,3.22,3.74,7,7.7,11H323.9c-31.79,0-108.45.07-140.24.11l-55.53.07a21.31,21.31,0,0,0-17.9,8.87c-13,17.06-30.32,24.61-51.53,21.34-20.64-3.19-34.93-15.27-41.76-34.87s-3.49-38.49,10.6-54c22-24.22,62.08-21.84,81.81,4.19,1.64,2.16,3,4.54,4.49,6.8a5.86,5.86,0,0,0,6.51,2.69A5.42,5.42,0,0,0,125,39.54a9.84,9.84,0,0,0-1.46-5A64.92,64.92,0,0,0,66.91,2.14a70,70,0,0,0-9.65.68" transform="translate(-1.58 -2.14)"/><path class="cls-3" d="M48.76,89.87A29,29,0,0,0,95.65,77,27.26,27.26,0,0,0,97,67.47a1.51,1.51,0,0,1,.94-1.65C99,65.31,100,64.71,101,64.14c.75-.42,1.11-.23,1.2.64a34.18,34.18,0,0,1-24.36,36.37c-13.9,3.92-25.85.24-35.7-10.27A2.33,2.33,0,0,0,40.28,90c-1.46,0-2.93,0-4.4-.07-1.94-.1-3.15-1.24-3.08-2.78s1.36-2.69,3.3-2.65c1.57,0,1.58,0,.93-1.37A31.45,31.45,0,0,1,34.82,77a1.24,1.24,0,0,0-1.33-1.1,89.53,89.53,0,0,1-9.23-1.17,2.59,2.59,0,0,1-2.36-2.44,2.68,2.68,0,0,1,1.64-2.74,3,3,0,0,1,1.8-.06A94.28,94.28,0,0,0,35,70.66,105.14,105.14,0,0,0,63,68.49,115.29,115.29,0,0,0,93.25,57.72c1.46-.78,1.51-.85.72-2.33-5.94-11-15.22-16.64-27.67-16-11.2.6-19.37,6.41-24.47,16.44-.45.88-.35,1.24.71,1.21A94.09,94.09,0,0,0,61.09,54.8c1.71-.4,3.42-.82,5.12-1.21a2.05,2.05,0,0,0,1.68-1.66,6.69,6.69,0,0,1,6-5.18,6.85,6.85,0,0,1,7,3.78A6.76,6.76,0,0,1,80,58.21a6.94,6.94,0,0,1-9.56,1.08,3.15,3.15,0,0,0-3.14-.49,98.31,98.31,0,0,1-16.08,3.05,105.62,105.62,0,0,1-12.82.51c-3-.1-4.07-1.54-3.09-4.4,4-11.76,12-19.47,23.92-22.8a34.15,34.15,0,0,1,36.65,13,39.11,39.11,0,0,1,2.79,4.6c.27.5.31,1.58,1.21,1.17s2-.62,1.82-2.09a6.53,6.53,0,0,1,3-6.2A7,7,0,1,1,106,57.92a2.52,2.52,0,0,0-2.69.24A123.29,123.29,0,0,1,71.7,71.93a127.42,127.42,0,0,1-18.23,3.58,90.15,90.15,0,0,1-11.84.73c-1.41,0-1.43,0-1,1.34a28.6,28.6,0,0,0,2.84,6.09,1.72,1.72,0,0,0,1.71.88,123.3,123.3,0,0,0,16-1.65c3.13-.53,6.22-1.32,9.34-2,.8-.17,1-.73,1.16-1.38a7,7,0,0,1,8.79-4.79,6.76,6.76,0,0,1,5,5.91,6.91,6.91,0,0,1-3.58,7,6.56,6.56,0,0,1-7.58-.56A3.41,3.41,0,0,0,71,86.34a125.66,125.66,0,0,1-21.47,3.41c-.15,0-.31,0-.75.12m62.51-38.8a2.64,2.64,0,0,0-3-2.34A2.74,2.74,0,0,0,106,51.81,2.65,2.65,0,0,0,109.09,54a2.39,2.39,0,0,0,2.18-2.93m-39.2,3.06a2.64,2.64,0,0,0,3,2.28,2.83,2.83,0,0,0,2.31-3.12,2.66,2.66,0,0,0-3.16-2.16,2.4,2.4,0,0,0-2.11,3m6.88,30a2.5,2.5,0,0,0,2.16-3A2.63,2.63,0,0,0,78,78.85a2.72,2.72,0,0,0-2.15,3.09A2.69,2.69,0,0,0,79,84.09" transform="translate(-1.58 -2.14)"/><path class="cls-3" d="M25.14,83.58a3.11,3.11,0,0,1,3.61,2.34,2.87,2.87,0,0,1-2.26,3,3,3,0,0,1-3.56-2.38,2.67,2.67,0,0,1,2.21-3" transform="translate(-1.58 -2.14)"/></svg>